<svg xmlns="http://www.w3.org/2000/svg" xmlns:xlink="http://www.w3.org/1999/xlink" width="672" height="288" class="img-responsive center-img" viewBox="0 0 504 216"><defs><style>*{stroke-linejoin:round;stroke-linecap:butt}</style></defs><g id="figure_1"><path id="patch_1" d="M0 216h504V0H0z" style="fill:#fff"/><g id="axes_1"><path id="patch_2" d="M52.12 173.763H493.2V10.8H52.12z" style="fill:#fff"/><g id="matplotlib.axis_1"><g id="xtick_1"><g id="text_1" style="fill:#262626" transform="scale(.1 -.1) rotate(45 2787.034 -205.255)"><defs><path id="ArialMT-31" d="M2384 0h-562v3584q-203-193-533-387t-592-291v544q472 222 825 537 353 316 500 613h362V0z" transform="scale(.01563)"/><path id="ArialMT-2e" d="M581 0v641h641V0H581z" transform="scale(.01563)"/><path id="ArialMT-30" d="M266 2259q0 813 167 1308 167 496 496 764 330 269 830 269 369 0 647-149 278-148 459-428 182-279 285-681 103-401 103-1083 0-806-166-1301-165-495-495-766-329-270-833-270-662 0-1040 475-453 572-453 1862zm578 0q0-1128 264-1502 264-373 651-373 388 0 652 375t264 1500q0 1132-264 1503-264 372-658 372-387 0-619-328-290-418-290-1547z" transform="scale(.01563)"/></defs><use xlink:href="#ArialMT-31"/><use xlink:href="#ArialMT-2e" transform="translate(55.615)"/><use xlink:href="#ArialMT-30" transform="translate(83.398)"/><use xlink:href="#ArialMT-30" transform="translate(139.014)"/></g></g><g id="xtick_2"><g id="text_2" style="fill:#262626" transform="scale(.1 -.1) rotate(45 3037.648 399.78)"><defs><path id="ArialMT-32" d="M3222 541V0H194q-6 203 65 391 116 309 370 609 255 300 737 694 747 612 1009 970 263 358 263 677 0 334-240 563-239 230-623 230-406 0-650-244-244-243-247-674l-578 59q59 647 446 986 388 339 1042 339 659 0 1043-366 385-365 385-906 0-275-113-541-112-265-373-559t-867-806q-507-425-651-577-143-151-237-304h2247z" transform="scale(.01563)"/><path id="ArialMT-35" d="m266 1200 590 50q66-431 305-649 239-217 577-217 406 0 687 306 281 307 281 813 0 481-270 759-270 279-708 279-272 0-491-124-218-123-343-320l-528 69 443 2353h2279v-538H1259l-246-1231q412 288 865 288 600 0 1012-416 413-416 413-1069 0-622-362-1075Q2500-78 1738-78q-625 0-1021 350-395 350-451 928z" transform="scale(.01563)"/></defs><use xlink:href="#ArialMT-31"/><use xlink:href="#ArialMT-2e" transform="translate(55.615)"/><use xlink:href="#ArialMT-32" transform="translate(83.398)"/><use xlink:href="#ArialMT-35" transform="translate(139.014)"/></g></g><g id="xtick_3"><g id="text_3" style="fill:#262626" transform="scale(.1 -.1) rotate(45 3288.261 1004.814)"><use xlink:href="#ArialMT-31"/><use xlink:href="#ArialMT-2e" transform="translate(55.615)"/><use xlink:href="#ArialMT-35" transform="translate(83.398)"/><use xlink:href="#ArialMT-30" transform="translate(139.014)"/></g></g><g id="xtick_4"><g id="text_4" style="fill:#262626" transform="scale(.1 -.1) rotate(45 3538.875 1609.85)"><defs><path id="ArialMT-37" d="M303 3981v541h2966v-438q-438-465-868-1237-429-772-663-1588Q1569 684 1522 0H944q9 541 212 1306 203 766 583 1477t808 1198H303z" transform="scale(.01563)"/></defs><use xlink:href="#ArialMT-31"/><use xlink:href="#ArialMT-2e" transform="translate(55.615)"/><use xlink:href="#ArialMT-37" transform="translate(83.398)"/><use xlink:href="#ArialMT-35" transform="translate(139.014)"/></g></g><g id="xtick_5"><g id="text_5" style="fill:#262626" transform="scale(.1 -.1) rotate(45 3789.489 2214.884)"><use xlink:href="#ArialMT-32"/><use xlink:href="#ArialMT-2e" transform="translate(55.615)"/><use xlink:href="#ArialMT-30" transform="translate(83.398)"/><use xlink:href="#ArialMT-30" transform="translate(139.014)"/></g></g><g id="xtick_6"><g id="text_6" style="fill:#262626" transform="scale(.1 -.1) rotate(45 4040.102 2819.919)"><use xlink:href="#ArialMT-32"/><use xlink:href="#ArialMT-2e" transform="translate(55.615)"/><use xlink:href="#ArialMT-32" transform="translate(83.398)"/><use xlink:href="#ArialMT-35" transform="translate(139.014)"/></g></g><g id="xtick_7"><g id="text_7" style="fill:#262626" transform="scale(.1 -.1) rotate(45 4290.716 3424.954)"><use xlink:href="#ArialMT-32"/><use xlink:href="#ArialMT-2e" transform="translate(55.615)"/><use xlink:href="#ArialMT-35" transform="translate(83.398)"/><use xlink:href="#ArialMT-30" transform="translate(139.014)"/></g></g><g id="xtick_8"><g id="text_8" style="fill:#262626" transform="scale(.1 -.1) rotate(45 4541.33 4029.988)"><use xlink:href="#ArialMT-32"/><use xlink:href="#ArialMT-2e" transform="translate(55.615)"/><use xlink:href="#ArialMT-37" transform="translate(83.398)"/><use xlink:href="#ArialMT-35" transform="translate(139.014)"/></g></g><g id="xtick_9"><g id="text_9" style="fill:#262626" transform="scale(.1 -.1) rotate(45 4791.943 4635.023)"><defs><path id="ArialMT-33" d="m269 1209 562 75q97-478 330-689t567-211q397 0 670 275 274 275 274 682 0 387-253 638-253 252-644 252-159 0-397-62l63 494q56-7 90-7 360 0 647 187 288 188 288 579 0 309-210 512-209 204-540 204-328 0-547-207-219-206-281-618l-563 100q103 565 468 876 366 311 910 311 375 0 690-161 316-161 483-439 168-278 168-591 0-296-160-540-159-244-471-388 406-93 631-389 225-295 225-739 0-600-438-1017Q2394-81 1725-81q-603 0-1002 359-398 360-454 931z" transform="scale(.01563)"/></defs><use xlink:href="#ArialMT-33"/><use xlink:href="#ArialMT-2e" transform="translate(55.615)"/><use xlink:href="#ArialMT-30" transform="translate(83.398)"/><use xlink:href="#ArialMT-30" transform="translate(139.014)"/></g></g></g><g id="matplotlib.axis_2"><g id="ytick_1"><use xlink:href="#ArialMT-30" id="text_10" style="fill:#262626" transform="matrix(.1 0 0 -.1 36.06 177.341)"/></g><g id="ytick_2"><g id="text_11" style="fill:#262626" transform="matrix(.1 0 0 -.1 24.937 146.301)"><use xlink:href="#ArialMT-31"/><use xlink:href="#ArialMT-30" transform="translate(55.615)"/><use xlink:href="#ArialMT-30" transform="translate(111.23)"/></g></g><g id="ytick_3"><g id="text_12" style="fill:#262626" transform="matrix(.1 0 0 -.1 24.937 115.26)"><use xlink:href="#ArialMT-32"/><use xlink:href="#ArialMT-30" transform="translate(55.615)"/><use xlink:href="#ArialMT-30" transform="translate(111.23)"/></g></g><g id="ytick_4"><g id="text_13" style="fill:#262626" transform="matrix(.1 0 0 -.1 24.937 84.22)"><use xlink:href="#ArialMT-33"/><use xlink:href="#ArialMT-30" transform="translate(55.615)"/><use xlink:href="#ArialMT-30" transform="translate(111.23)"/></g></g><g id="ytick_5"><g id="text_14" style="fill:#262626" transform="matrix(.1 0 0 -.1 24.937 53.18)"><defs><path id="ArialMT-34" d="M2069 0v1097H81v516l2091 2968h459V1613h619v-516h-619V0h-562zm0 1613v2065L634 1613h1435z" transform="scale(.01563)"/></defs><use xlink:href="#ArialMT-34"/><use xlink:href="#ArialMT-30" transform="translate(55.615)"/><use xlink:href="#ArialMT-30" transform="translate(111.23)"/></g></g><g id="ytick_6"><g id="text_15" style="fill:#262626" transform="matrix(.1 0 0 -.1 24.937 22.139)"><use xlink:href="#ArialMT-35"/><use xlink:href="#ArialMT-30" transform="translate(55.615)"/><use xlink:href="#ArialMT-30" transform="translate(111.23)"/></g></g><g id="text_16" style="fill:#262626" transform="matrix(0 -.11 -.11 0 18.622 118.264)"><defs><path id="ArialMT-46" d="M525 0v4581h3091v-540H1131V2622h2150v-541H1131V0H525z" transform="scale(.01563)"/><path id="ArialMT-72" d="M416 0v3319h506v-503q194 353 358 465 164 113 361 113 284 0 578-181l-194-522q-206 122-412 122-185 0-332-111t-209-308q-94-300-94-656V0H416z" transform="scale(.01563)"/><path id="ArialMT-65" d="m2694 1069 581-72q-137-509-509-791-372-281-950-281-728 0-1155 448-427 449-427 1258 0 838 431 1300 432 463 1119 463 666 0 1088-453t422-1275q0-50-3-150H816q31-547 309-838 278-290 694-290 309 0 528 162 219 163 347 519zM847 1978h1853q-37 419-212 628-269 325-697 325-388 0-652-259t-292-694z" transform="scale(.01563)"/><path id="ArialMT-71" d="M2538-1272V353q-132-184-368-306T1669-75q-591 0-1018 472-426 472-426 1294 0 500 173 896 174 397 503 602 330 205 724 205 616 0 969-519v444h506v-4591h-562zM803 1669q0-641 269-961t644-320q359 0 618 304 260 305 260 927 0 662-274 996-273 335-642 335-365 0-620-311t-255-970z" transform="scale(.01563)"/><path id="ArialMT-75" d="M2597 0v488Q2209-75 1544-75q-294 0-549 112-254 113-378 283-123 171-173 418-35 165-35 525v2056h563V1478q0-440 34-594 53-221 225-348t425-127q253 0 475 130t314 353q93 224 93 649v1778h562V0h-503z" transform="scale(.01563)"/><path id="ArialMT-6e" d="M422 0v3319h506v-472q366 547 1056 547 300 0 552-108t377-283q125-175 175-415 31-157 31-547V0h-563v2019q0 344-66 514-65 170-232 271-167 102-392 102-360 0-621-228t-261-865V0H422z" transform="scale(.01563)"/><path id="ArialMT-63" d="m2588 1216 553-72q-91-572-465-896-373-323-917-323-681 0-1095 445-414 446-414 1277 0 537 178 940 178 404 542 605 364 202 793 202 540 0 884-274 344-273 441-776l-547-85q-78 335-277 503-198 169-480 169-425 0-691-305-265-304-265-963 0-669 256-972 257-303 669-303 331 0 553 203t282 625z" transform="scale(.01563)"/><path id="ArialMT-79" d="m397-1278-63 528q185-50 322-50 188 0 300 63 113 62 185 174 53 85 172 419 15 47 50 138L103 3319h606l691-1922q134-366 241-769 97 388 231 756l709 1935h563L1881-56q-203-547-315-753-150-279-344-408-194-130-463-130-162 0-362 69z" transform="scale(.01563)"/></defs><use xlink:href="#ArialMT-46"/><use xlink:href="#ArialMT-72" transform="translate(61.084)"/><use xlink:href="#ArialMT-65" transform="translate(94.385)"/><use xlink:href="#ArialMT-71" transform="translate(150)"/><use xlink:href="#ArialMT-75" transform="translate(205.615)"/><use xlink:href="#ArialMT-65" transform="translate(261.23)"/><use xlink:href="#ArialMT-6e" transform="translate(316.846)"/><use xlink:href="#ArialMT-63" transform="translate(372.46)"/><use xlink:href="#ArialMT-79" transform="translate(422.46)"/></g></g><path id="patch_3" d="M72.17 173.763h8.019V94.609h-8.02z" clip-path="url(#p1bf32c514e)" style="fill:#0d6efd;stroke:#fff;stroke-width:.3;stroke-linejoin:miter"/><path id="patch_4" d="M80.189 173.763h8.02v-5.588h-8.02z" clip-path="url(#p1bf32c514e)" style="fill:#0d6efd;stroke:#fff;stroke-width:.3;stroke-linejoin:miter"/><path id="patch_5" d="M88.208 173.763h8.02v-4.657h-8.02z" clip-path="url(#p1bf32c514e)" style="fill:#0d6efd;stroke:#fff;stroke-width:.3;stroke-linejoin:miter"/><path id="patch_6" d="M96.228 173.763h8.02v-7.45h-8.02z" clip-path="url(#p1bf32c514e)" style="fill:#0d6efd;stroke:#fff;stroke-width:.3;stroke-linejoin:miter"/><path id="patch_7" d="M104.248 173.763h8.02v-7.45h-8.02z" clip-path="url(#p1bf32c514e)" style="fill:#0d6efd;stroke:#fff;stroke-width:.3;stroke-linejoin:miter"/><path id="patch_8" d="M112.267 173.763h8.02v-5.588h-8.02z" clip-path="url(#p1bf32c514e)" style="fill:#0d6efd;stroke:#fff;stroke-width:.3;stroke-linejoin:miter"/><path id="patch_9" d="M120.287 173.763h8.02v-6.209h-8.02z" clip-path="url(#p1bf32c514e)" style="fill:#0d6efd;stroke:#fff;stroke-width:.3;stroke-linejoin:miter"/><path id="patch_10" d="M128.307 173.763h8.02v-7.76h-8.02z" clip-path="url(#p1bf32c514e)" style="fill:#0d6efd;stroke:#fff;stroke-width:.3;stroke-linejoin:miter"/><path id="patch_11" d="M136.326 173.763h8.02v-7.76h-8.02z" clip-path="url(#p1bf32c514e)" style="fill:#0d6efd;stroke:#fff;stroke-width:.3;stroke-linejoin:miter"/><path id="patch_12" d="M144.346 173.763h8.02v-4.967h-8.02z" clip-path="url(#p1bf32c514e)" style="fill:#0d6efd;stroke:#fff;stroke-width:.3;stroke-linejoin:miter"/><path id="patch_13" d="M152.365 173.763h8.02v-4.967h-8.02z" clip-path="url(#p1bf32c514e)" style="fill:#0d6efd;stroke:#fff;stroke-width:.3;stroke-linejoin:miter"/><path id="patch_14" d="M160.385 173.763h8.02v-4.967h-8.02z" clip-path="url(#p1bf32c514e)" style="fill:#0d6efd;stroke:#fff;stroke-width:.3;stroke-linejoin:miter"/><path id="patch_15" d="M168.405 173.763h8.02v-6.209h-8.02z" clip-path="url(#p1bf32c514e)" style="fill:#0d6efd;stroke:#fff;stroke-width:.3;stroke-linejoin:miter"/><path id="patch_16" d="M176.424 173.763h8.02v-8.381h-8.02z" clip-path="url(#p1bf32c514e)" style="fill:#0d6efd;stroke:#fff;stroke-width:.3;stroke-linejoin:miter"/><path id="patch_17" d="M184.444 173.763h8.02v-4.036h-8.02z" clip-path="url(#p1bf32c514e)" style="fill:#0d6efd;stroke:#fff;stroke-width:.3;stroke-linejoin:miter"/><path id="patch_18" d="M192.464 173.763h8.02v-9.313h-8.02z" clip-path="url(#p1bf32c514e)" style="fill:#0d6efd;stroke:#fff;stroke-width:.3;stroke-linejoin:miter"/><path id="patch_19" d="M200.483 173.763h8.02v-6.519h-8.02z" clip-path="url(#p1bf32c514e)" style="fill:#0d6efd;stroke:#fff;stroke-width:.3;stroke-linejoin:miter"/><path id="patch_20" d="M208.503 173.763h8.02v-4.657h-8.02z" clip-path="url(#p1bf32c514e)" style="fill:#0d6efd;stroke:#fff;stroke-width:.3;stroke-linejoin:miter"/><path id="patch_21" d="M216.523 173.763h8.02v-5.277h-8.02z" clip-path="url(#p1bf32c514e)" style="fill:#0d6efd;stroke:#fff;stroke-width:.3;stroke-linejoin:miter"/><path id="patch_22" d="M224.542 173.763h8.02v-6.209h-8.02z" clip-path="url(#p1bf32c514e)" style="fill:#0d6efd;stroke:#fff;stroke-width:.3;stroke-linejoin:miter"/><path id="patch_23" d="M232.562 173.763h8.02v-8.381h-8.02z" clip-path="url(#p1bf32c514e)" style="fill:#0d6efd;stroke:#fff;stroke-width:.3;stroke-linejoin:miter"/><path id="patch_24" d="M240.581 173.763h8.02v-7.14h-8.02z" clip-path="url(#p1bf32c514e)" style="fill:#0d6efd;stroke:#fff;stroke-width:.3;stroke-linejoin:miter"/><path id="patch_25" d="M248.601 173.763h8.02v-4.967h-8.02z" clip-path="url(#p1bf32c514e)" style="fill:#0d6efd;stroke:#fff;stroke-width:.3;stroke-linejoin:miter"/><path id="patch_26" d="M256.62 173.763h8.02v-6.519h-8.02z" clip-path="url(#p1bf32c514e)" style="fill:#0d6efd;stroke:#fff;stroke-width:.3;stroke-linejoin:miter"/><path id="patch_27" d="M264.64 173.763h8.02v-11.796h-8.02z" clip-path="url(#p1bf32c514e)" style="fill:#0d6efd;stroke:#fff;stroke-width:.3;stroke-linejoin:miter"/><path id="patch_28" d="M272.66 173.763h8.02V18.56h-8.02z" clip-path="url(#p1bf32c514e)" style="fill:#0d6efd;stroke:#fff;stroke-width:.3;stroke-linejoin:miter"/><path id="patch_29" d="M280.68 173.763h8.02v-10.244h-8.02z" clip-path="url(#p1bf32c514e)" style="fill:#0d6efd;stroke:#fff;stroke-width:.3;stroke-linejoin:miter"/><path id="patch_30" d="M288.7 173.763h8.019v-13.348h-8.02z" clip-path="url(#p1bf32c514e)" style="fill:#0d6efd;stroke:#fff;stroke-width:.3;stroke-linejoin:miter"/><path id="patch_31" d="M296.719 173.763h8.02v-11.485h-8.02z" clip-path="url(#p1bf32c514e)" style="fill:#0d6efd;stroke:#fff;stroke-width:.3;stroke-linejoin:miter"/><path id="patch_32" d="M304.739 173.763h8.02v-12.106h-8.02z" clip-path="url(#p1bf32c514e)" style="fill:#0d6efd;stroke:#fff;stroke-width:.3;stroke-linejoin:miter"/><path id="patch_33" d="M312.758 173.763h8.02v-7.45h-8.02z" clip-path="url(#p1bf32c514e)" style="fill:#0d6efd;stroke:#fff;stroke-width:.3;stroke-linejoin:miter"/><path id="patch_34" d="M320.778 173.763h8.02v-5.588h-8.02z" clip-path="url(#p1bf32c514e)" style="fill:#0d6efd;stroke:#fff;stroke-width:.3;stroke-linejoin:miter"/><path id="patch_35" d="M328.797 173.763h8.02v-8.071h-8.02z" clip-path="url(#p1bf32c514e)" style="fill:#0d6efd;stroke:#fff;stroke-width:.3;stroke-linejoin:miter"/><path id="patch_36" d="M336.817 173.763h8.02v-8.381h-8.02z" clip-path="url(#p1bf32c514e)" style="fill:#0d6efd;stroke:#fff;stroke-width:.3;stroke-linejoin:miter"/><path id="patch_37" d="M344.837 173.763h8.02v-7.76h-8.02z" clip-path="url(#p1bf32c514e)" style="fill:#0d6efd;stroke:#fff;stroke-width:.3;stroke-linejoin:miter"/><path id="patch_38" d="M352.856 173.763h8.02v-7.14h-8.02z" clip-path="url(#p1bf32c514e)" style="fill:#0d6efd;stroke:#fff;stroke-width:.3;stroke-linejoin:miter"/><path id="patch_39" d="M360.876 173.763h8.02v-8.381h-8.02z" clip-path="url(#p1bf32c514e)" style="fill:#0d6efd;stroke:#fff;stroke-width:.3;stroke-linejoin:miter"/><path id="patch_40" d="M368.896 173.763h8.02v-8.071h-8.02z" clip-path="url(#p1bf32c514e)" style="fill:#0d6efd;stroke:#fff;stroke-width:.3;stroke-linejoin:miter"/><path id="patch_41" d="M376.915 173.763h8.02v-8.381h-8.02z" clip-path="url(#p1bf32c514e)" style="fill:#0d6efd;stroke:#fff;stroke-width:.3;stroke-linejoin:miter"/><path id="patch_42" d="M384.935 173.763h8.02v-6.519h-8.02z" clip-path="url(#p1bf32c514e)" style="fill:#0d6efd;stroke:#fff;stroke-width:.3;stroke-linejoin:miter"/><path id="patch_43" d="M392.955 173.763h8.02v-10.554h-8.02z" clip-path="url(#p1bf32c514e)" style="fill:#0d6efd;stroke:#fff;stroke-width:.3;stroke-linejoin:miter"/><path id="patch_44" d="M400.974 173.763h8.02v-10.865h-8.02z" clip-path="url(#p1bf32c514e)" style="fill:#0d6efd;stroke:#fff;stroke-width:.3;stroke-linejoin:miter"/><path id="patch_45" d="M408.994 173.763h8.02v-11.796h-8.02z" clip-path="url(#p1bf32c514e)" style="fill:#0d6efd;stroke:#fff;stroke-width:.3;stroke-linejoin:miter"/><path id="patch_46" d="M417.013 173.763h8.02v-8.071h-8.02z" clip-path="url(#p1bf32c514e)" style="fill:#0d6efd;stroke:#fff;stroke-width:.3;stroke-linejoin:miter"/><path id="patch_47" d="M425.033 173.763h8.02v-9.313h-8.02z" clip-path="url(#p1bf32c514e)" style="fill:#0d6efd;stroke:#fff;stroke-width:.3;stroke-linejoin:miter"/><path id="patch_48" d="M433.053 173.763h8.02v-8.071h-8.02z" clip-path="url(#p1bf32c514e)" style="fill:#0d6efd;stroke:#fff;stroke-width:.3;stroke-linejoin:miter"/><path id="patch_49" d="M441.072 173.763h8.02v-11.175h-8.02z" clip-path="url(#p1bf32c514e)" style="fill:#0d6efd;stroke:#fff;stroke-width:.3;stroke-linejoin:miter"/><path id="patch_50" d="M449.092 173.763h8.02v-6.83h-8.02z" clip-path="url(#p1bf32c514e)" style="fill:#0d6efd;stroke:#fff;stroke-width:.3;stroke-linejoin:miter"/><path id="patch_51" d="M457.112 173.763h8.02v-5.277h-8.02z" clip-path="url(#p1bf32c514e)" style="fill:#0d6efd;stroke:#fff;stroke-width:.3;stroke-linejoin:miter"/><path id="patch_52" d="M465.131 173.763h8.02v-59.288h-8.02z" clip-path="url(#p1bf32c514e)" style="fill:#0d6efd;stroke:#fff;stroke-width:.3;stroke-linejoin:miter"/><path id="patch_53" d="M52.12 173.763V10.8" style="fill:none"/><path id="patch_54" d="M493.2 173.763V10.8" style="fill:none"/><path id="patch_55" d="M52.12 173.763H493.2" style="fill:none"/><path id="patch_56" d="M52.12 10.8H493.2" style="fill:none"/></g></g><defs><clipPath id="p1bf32c514e"><path d="M52.12 10.8H493.2v162.963H52.12z"/></clipPath></defs></svg>