<svg xmlns="http://www.w3.org/2000/svg" xmlns:xlink="http://www.w3.org/1999/xlink" width="540" height="417.254" class="img-responsive center-img" viewBox="0 0 405 312.941"><defs><style>*{stroke-linejoin:round;stroke-linecap:butt}</style></defs><g id="figure_1"><path id="patch_1" d="M0 312.94h405V0H0z" style="fill:#fff"/><g id="axes_1"><path id="patch_2" d="M7.2 108.84h64.946v-92.4H7.2z" clip-path="url(#padbcd637b0)" style="fill:#1f77b4;stroke:#fff;stroke-width:.3;stroke-linejoin:miter"/><path id="patch_3" d="M72.146 108.84h59.95v-92.4h-59.95z" clip-path="url(#padbcd637b0)" style="fill:#ff7f0e;stroke:#fff;stroke-width:.3;stroke-linejoin:miter"/><path id="patch_4" d="M132.096 108.84h54.954v-92.4h-54.954z" clip-path="url(#padbcd637b0)" style="fill:#2ca02c;stroke:#fff;stroke-width:.3;stroke-linejoin:miter"/><path id="patch_5" d="M187.05 108.84h53.659v-92.4h-53.66z" clip-path="url(#padbcd637b0)" style="fill:#d62728;stroke:#fff;stroke-width:.3;stroke-linejoin:miter"/><path id="patch_6" d="M240.709 108.84h53.659v-92.4h-53.66z" clip-path="url(#padbcd637b0)" style="fill:#9467bd;stroke:#fff;stroke-width:.3;stroke-linejoin:miter"/><path id="patch_7" d="M294.368 108.84h53.104v-92.4h-53.104z" clip-path="url(#padbcd637b0)" style="fill:#8c564b;stroke:#fff;stroke-width:.3;stroke-linejoin:miter"/><path id="patch_8" d="M347.472 108.84H397.8v-92.4h-50.328z" clip-path="url(#padbcd637b0)" style="fill:#e377c2;stroke:#fff;stroke-width:.3;stroke-linejoin:miter"/><g id="text_1"><g style="fill:#fff" transform="matrix(.144 0 0 -.144 19.259 58.568)"><defs><path id="Arial-BoldMT-31" d="M2519 0h-878v3309q-482-450-1135-665v797q344 112 747 426t553 733h713V0z" transform="scale(.01563)"/><path id="Arial-BoldMT-36" d="m3247 3459-850-93q-31 262-163 387-131 125-340 125-278 0-471-250-192-250-242-1040 328 387 816 387 550 0 942-419 392-418 392-1081 0-703-413-1128Q2506-78 1859-78q-693 0-1140 539T272 2228q0 1260 465 1816 466 556 1210 556 522 0 864-292t436-849zM1256 1544q0-428 197-661t450-233q244 0 406 190 163 191 163 626 0 447-175 654-175 208-438 208-253 0-428-199-175-198-175-585z" transform="scale(.01563)"/><path id="Arial-BoldMT-2e" d="M459 0v878h879V0H459z" transform="scale(.01563)"/><path id="Arial-BoldMT-25" d="M278 3450q0 616 270 912 271 297 733 297 478 0 748-295 271-295 271-914 0-616-271-913-270-296-732-296-478 0-749 295-270 295-270 914zm685 6q0-447 103-600 78-112 215-112 141 0 219 112 100 153 100 600t-100 597q-78 116-219 116-137 0-215-113-103-153-103-600zm987-3631h-650l2441 4834h631L1950-175zm1419 1203q0 616 270 913t739 297q472 0 742-297 271-297 271-913 0-619-271-916-270-296-732-296-479 0-749 296-270 297-270 916zm684 3q0-447 103-597 78-115 216-115 141 0 216 112 103 153 103 600t-100 600q-78 113-219 113t-216-113q-103-153-103-600z" transform="scale(.01563)"/></defs><use xlink:href="#Arial-BoldMT-31"/><use xlink:href="#Arial-BoldMT-36" transform="translate(55.615)"/><use xlink:href="#Arial-BoldMT-2e" transform="translate(111.23)"/><use xlink:href="#Arial-BoldMT-36" transform="translate(139.014)"/><use xlink:href="#Arial-BoldMT-25" transform="translate(194.629)"/></g><g style="fill:#fff" transform="matrix(.144 0 0 -.144 22.867 73.989)"><defs><path id="Arial-BoldMT-28" d="M1916-1347h-603Q834-625 584 153T334 1659q0 904 310 1710 269 700 681 1290h600q-428-946-589-1611-161-664-161-1407 0-513 95-1051 96-537 261-1021 110-319 385-916z" transform="scale(.01563)"/><path id="Arial-BoldMT-33" d="m241 1216 850 103q40-325 218-497 179-172 432-172 272 0 457 206 186 207 186 557 0 331-178 524-178 194-434 194-169 0-403-65l97 715q356-9 543 155 188 164 188 436 0 231-138 368-137 138-365 138-225 0-385-156-159-156-193-456l-810 137q85 416 255 664 170 249 475 391t683 142q647 0 1037-412 322-338 322-763 0-603-659-962 394-85 629-379 236-293 236-709 0-603-441-1028Q2403-78 1747-78q-622 0-1032 358-409 358-474 936z" transform="scale(.01563)"/><path id="Arial-BoldMT-35" d="m284 1178 875 91q38-297 222-471 185-173 425-173 275 0 466 223 191 224 191 674 0 422-190 633-189 211-492 211-378 0-678-335l-712 103 450 2385h2322v-822H1506l-137-778q294 147 600 147 584 0 990-425 407-425 407-1103 0-566-328-1010Q2591-78 1797-78q-634 0-1034 340-400 341-479 916z" transform="scale(.01563)"/><path id="Arial-BoldMT-29" d="M216-1347q259 556 365 853 107 297 197 684 91 388 134 736 44 349 44 715 0 743-159 1407-159 665-588 1611h597q472-671 733-1425 261-753 261-1528 0-653-206-1400-235-837-772-1653H216z" transform="scale(.01563)"/></defs><use xlink:href="#Arial-BoldMT-28"/><use xlink:href="#Arial-BoldMT-33" transform="translate(33.3)"/><use xlink:href="#Arial-BoldMT-35" transform="translate(88.916)"/><use xlink:href="#Arial-BoldMT-31" transform="translate(144.531)"/><use xlink:href="#Arial-BoldMT-29" transform="translate(200.146)"/></g></g><g id="text_2"><g style="fill:#fff" transform="matrix(.144 0 0 -.144 81.707 58.568)"><use xlink:href="#Arial-BoldMT-31"/><use xlink:href="#Arial-BoldMT-35" transform="translate(55.615)"/><use xlink:href="#Arial-BoldMT-2e" transform="translate(111.23)"/><use xlink:href="#Arial-BoldMT-33" transform="translate(139.014)"/><use xlink:href="#Arial-BoldMT-25" transform="translate(194.629)"/></g><g style="fill:#fff" transform="matrix(.144 0 0 -.144 85.314 73.989)"><defs><path id="Arial-BoldMT-32" d="M3238 816V0H159q50 463 300 877t988 1098q594 553 728 750 181 272 181 538 0 293-158 451-157 158-435 158-275 0-438-166-162-165-187-550l-875 88q78 725 490 1040 413 316 1031 316 679 0 1066-366 388-365 388-909 0-309-111-589t-352-586q-159-203-575-585-416-381-527-506-110-125-179-243h1744z" transform="scale(.01563)"/><path id="Arial-BoldMT-34" d="M1994 0v922H119v769l1987 2909h738V1694h569V922h-569V0h-850zm0 1694v1565L941 1694h1053z" transform="scale(.01563)"/></defs><use xlink:href="#Arial-BoldMT-28"/><use xlink:href="#Arial-BoldMT-33" transform="translate(33.3)"/><use xlink:href="#Arial-BoldMT-32" transform="translate(88.916)"/><use xlink:href="#Arial-BoldMT-34" transform="translate(144.531)"/><use xlink:href="#Arial-BoldMT-29" transform="translate(200.146)"/></g></g><g id="text_3"><g style="fill:#fff" transform="matrix(.144 0 0 -.144 139.159 58.568)"><use xlink:href="#Arial-BoldMT-31"/><use xlink:href="#Arial-BoldMT-34" transform="translate(55.615)"/><use xlink:href="#Arial-BoldMT-2e" transform="translate(111.23)"/><use xlink:href="#Arial-BoldMT-31" transform="translate(139.014)"/><use xlink:href="#Arial-BoldMT-25" transform="translate(194.629)"/></g><g style="fill:#fff" transform="matrix(.144 0 0 -.144 142.766 73.989)"><defs><path id="Arial-BoldMT-39" d="m291 1059 850 94q31-259 162-384t347-125q272 0 462 250 191 250 244 1037-331-384-828-384-540 0-933 417-392 417-392 1086 0 697 414 1123 414 427 1055 427 697 0 1144-539t447-1773q0-1257-466-1813T1584-81q-537 0-869 286-331 286-424 854zm1987 1919q0 425-195 659-195 235-452 235-243 0-404-192t-161-630q0-444 175-652 175-207 437-207 253 0 426 200 174 200 174 587z" transform="scale(.01563)"/><path id="Arial-BoldMT-37" d="M272 3703v816h3003v-638q-372-365-757-1050-384-684-586-1455Q1731 606 1734 0H888q21 950 391 1937 371 988 990 1766H272z" transform="scale(.01563)"/></defs><use xlink:href="#Arial-BoldMT-28"/><use xlink:href="#Arial-BoldMT-32" transform="translate(33.3)"/><use xlink:href="#Arial-BoldMT-39" transform="translate(88.916)"/><use xlink:href="#Arial-BoldMT-37" transform="translate(144.531)"/><use xlink:href="#Arial-BoldMT-29" transform="translate(200.146)"/></g></g><g id="text_4"><g style="fill:#fff" transform="matrix(.144 0 0 -.144 193.465 58.568)"><use xlink:href="#Arial-BoldMT-31"/><use xlink:href="#Arial-BoldMT-33" transform="translate(55.615)"/><use xlink:href="#Arial-BoldMT-2e" transform="translate(111.23)"/><use xlink:href="#Arial-BoldMT-37" transform="translate(139.014)"/><use xlink:href="#Arial-BoldMT-25" transform="translate(194.629)"/></g><g style="fill:#fff" transform="matrix(.144 0 0 -.144 197.073 73.989)"><defs><path id="Arial-BoldMT-30" d="M1756 4600q666 0 1041-475 447-562 447-1866 0-1300-450-1868Q2422-78 1756-78q-668 0-1078 514-409 514-409 1833 0 1294 450 1862 372 469 1037 469zm0-728q-159 0-284-102-125-101-194-364-90-340-90-1147 0-806 81-1108 81-301 204-401 124-100 283-100 160 0 285 101 125 102 193 365 91 337 91 1143 0 807-81 1108-81 302-205 403-123 102-283 102z" transform="scale(.01563)"/></defs><use xlink:href="#Arial-BoldMT-28"/><use xlink:href="#Arial-BoldMT-32" transform="translate(33.3)"/><use xlink:href="#Arial-BoldMT-39" transform="translate(88.916)"/><use xlink:href="#Arial-BoldMT-30" transform="translate(144.531)"/><use xlink:href="#Arial-BoldMT-29" transform="translate(200.146)"/></g></g><g id="text_5"><g style="fill:#fff" transform="matrix(.144 0 0 -.144 247.124 58.568)"><use xlink:href="#Arial-BoldMT-31"/><use xlink:href="#Arial-BoldMT-33" transform="translate(55.615)"/><use xlink:href="#Arial-BoldMT-2e" transform="translate(111.23)"/><use xlink:href="#Arial-BoldMT-37" transform="translate(139.014)"/><use xlink:href="#Arial-BoldMT-25" transform="translate(194.629)"/></g><g style="fill:#fff" transform="matrix(.144 0 0 -.144 250.732 73.989)"><use xlink:href="#Arial-BoldMT-28"/><use xlink:href="#Arial-BoldMT-32" transform="translate(33.3)"/><use xlink:href="#Arial-BoldMT-39" transform="translate(88.916)"/><use xlink:href="#Arial-BoldMT-30" transform="translate(144.531)"/><use xlink:href="#Arial-BoldMT-29" transform="translate(200.146)"/></g></g><g id="text_6"><g style="fill:#fff" transform="matrix(.144 0 0 -.144 300.505 58.568)"><use xlink:href="#Arial-BoldMT-31"/><use xlink:href="#Arial-BoldMT-33" transform="translate(55.615)"/><use xlink:href="#Arial-BoldMT-2e" transform="translate(111.23)"/><use xlink:href="#Arial-BoldMT-36" transform="translate(139.014)"/><use xlink:href="#Arial-BoldMT-25" transform="translate(194.629)"/></g><g style="fill:#fff" transform="matrix(.144 0 0 -.144 304.113 73.989)"><defs><path id="Arial-BoldMT-38" d="M1025 2472q-341 144-496 395-154 252-154 552 0 512 358 846 358 335 1017 335 653 0 1014-335 361-334 361-846 0-319-166-568-165-248-465-379 381-153 579-447 199-294 199-678 0-634-405-1031Q2463-81 1791-81q-625 0-1041 328-491 387-491 1062 0 372 184 683 185 311 582 480zm181 884q0-262 148-409 149-147 396-147 250 0 400 148 150 149 150 411 0 247-149 395-148 149-392 149-253 0-403-150t-150-397zm-81-1962q0-363 186-566t464-203q272 0 450 195 178 196 178 564 0 322-181 517-181 196-459 196-322 0-480-222t-158-481z" transform="scale(.01563)"/></defs><use xlink:href="#Arial-BoldMT-28"/><use xlink:href="#Arial-BoldMT-32" transform="translate(33.3)"/><use xlink:href="#Arial-BoldMT-38" transform="translate(88.916)"/><use xlink:href="#Arial-BoldMT-37" transform="translate(144.531)"/><use xlink:href="#Arial-BoldMT-29" transform="translate(200.146)"/></g></g><g id="text_7"><g style="fill:#fff" transform="matrix(.144 0 0 -.144 352.222 58.568)"><use xlink:href="#Arial-BoldMT-31"/><use xlink:href="#Arial-BoldMT-32" transform="translate(55.615)"/><use xlink:href="#Arial-BoldMT-2e" transform="translate(111.23)"/><use xlink:href="#Arial-BoldMT-39" transform="translate(139.014)"/><use xlink:href="#Arial-BoldMT-25" transform="translate(194.629)"/></g><g style="fill:#fff" transform="matrix(.144 0 0 -.144 355.83 73.989)"><use xlink:href="#Arial-BoldMT-28"/><use xlink:href="#Arial-BoldMT-32" transform="translate(33.3)"/><use xlink:href="#Arial-BoldMT-37" transform="translate(88.916)"/><use xlink:href="#Arial-BoldMT-32" transform="translate(144.531)"/><use xlink:href="#Arial-BoldMT-29" transform="translate(200.146)"/></g></g><g id="legend_1"><path id="patch_9" d="M19.296 305.74H232.11q3.456 0 3.456-3.455V130.176q0-3.456-3.456-3.456H19.296q-3.456 0-3.456 3.456v172.109q0 3.456 3.456 3.456z" style="fill:#fff;opacity:.8;stroke:#ccc;stroke-width:.3;stroke-linejoin:miter"/><path id="patch_10" d="M22.752 146.222h34.56v-12.096h-34.56z" style="fill:#1f77b4;stroke:#fff;stroke-width:.3;stroke-linejoin:miter"/><g id="text_8" style="fill:#262626" transform="matrix(.1728 0 0 -.1728 71.136 146.222)"><defs><path id="ArialMT-4f" d="M309 2231q0 1141 612 1786 613 646 1582 646 635 0 1144-304 509-303 776-845 268-542 268-1230 0-696-282-1246-281-550-797-833Q3097-78 2500-78q-647 0-1157 312-509 313-772 853-262 541-262 1144zm625-9q0-828 445-1305 446-476 1118-476 684 0 1126 481 443 481 443 1366 0 559-189 976t-554 647q-364 230-817 230-643 0-1108-443-464-442-464-1476z" transform="scale(.01563)"/><path id="ArialMT-62" d="M941 0H419v4581h562V2947q357 447 910 447 306 0 579-124 274-123 450-347 177-223 277-539 100-315 100-675 0-853-422-1319Q2453-75 1863-75q-588 0-922 491V0zm-7 1684q0-596 163-862 266-434 719-434 368 0 637 320t269 955q0 650-258 959t-623 309q-369 0-638-320t-269-927z" transform="scale(.01563)"/><path id="ArialMT-65" d="m2694 1069 581-72q-137-509-509-791-372-281-950-281-728 0-1155 448-427 449-427 1258 0 838 431 1300 432 463 1119 463 666 0 1088-453t422-1275q0-50-3-150H816q31-547 309-838 278-290 694-290 309 0 528 162 219 163 347 519zM847 1978h1853q-37 419-212 628-269 325-697 325-388 0-652-259t-292-694z" transform="scale(.01563)"/><path id="ArialMT-73" d="m197 991 556 87q47-334 261-512t599-178q387 0 574 157 188 158 188 371 0 190-166 300-115 75-575 190-618 157-857 271t-363 315q-123 202-123 446 0 221 101 410 102 190 277 315 131 96 357 163 227 68 487 68 390 0 685-113 296-112 436-305 141-192 194-513l-550-75q-37 256-217 399-180 144-508 144-387 0-553-128t-166-300q0-109 69-197 69-90 216-150 84-31 497-143 597-160 832-262 236-101 370-295 135-193 135-481 0-281-164-530-164-248-474-384-309-136-699-136-647 0-986 269T197 991z" transform="scale(.01563)"/><path id="ArialMT-69" d="M425 3934v647h563v-647H425zM425 0v3319h563V0H425z" transform="scale(.01563)"/><path id="ArialMT-74" d="m1650 503 81-497q-237-50-425-50-306 0-475 97-168 97-237 255t-69 664v1909H113v438h412v822l559 337V3319h566v-438h-566V941q0-241 30-310 30-68 97-109t192-41q94 0 247 22z" transform="scale(.01563)"/><path id="ArialMT-79" d="m397-1278-63 528q185-50 322-50 188 0 300 63 113 62 185 174 53 85 172 419 15 47 50 138L103 3319h606l691-1922q134-366 241-769 97 388 231 756l709 1935h563L1881-56q-203-547-315-753-150-279-344-408-194-130-463-130-162 0-362 69z" transform="scale(.01563)"/><path id="ArialMT-5f" d="M-97-1272v406h3728v-406H-97z" transform="scale(.01563)"/><path id="ArialMT-54" d="M1659 0v4041H150v540h3631v-540H2266V0h-607z" transform="scale(.01563)"/><path id="ArialMT-70" d="M422-1272v4591h512v-431q182 253 410 379 228 127 553 127 425 0 750-219t490-618q166-398 166-873 0-509-183-917-182-408-531-625-348-217-733-217-281 0-505 119-223 119-367 300v-1616H422zm509 2913q0-641 259-947 260-306 629-306 375 0 642 317t267 983q0 634-261 949-261 316-623 316-360 0-637-336-276-336-276-976z" transform="scale(.01563)"/><path id="ArialMT-49" d="M597 0v4581h606V0H597z" transform="scale(.01563)"/></defs><use xlink:href="#ArialMT-4f"/><use xlink:href="#ArialMT-62" transform="translate(77.783)"/><use xlink:href="#ArialMT-65" transform="translate(133.398)"/><use xlink:href="#ArialMT-73" transform="translate(189.014)"/><use xlink:href="#ArialMT-69" transform="translate(239.014)"/><use xlink:href="#ArialMT-74" transform="translate(261.23)"/><use xlink:href="#ArialMT-79" transform="translate(289.014)"/><use xlink:href="#ArialMT-5f" transform="translate(339.014)"/><use xlink:href="#ArialMT-54" transform="translate(394.629)"/><use xlink:href="#ArialMT-79" transform="translate(450.213)"/><use xlink:href="#ArialMT-70" transform="translate(500.213)"/><use xlink:href="#ArialMT-65" transform="translate(555.828)"/><use xlink:href="#ArialMT-5f" transform="translate(611.443)"/><use xlink:href="#ArialMT-49" transform="translate(667.059)"/></g><path id="patch_11" d="M22.752 171.09h34.56v-12.097h-34.56z" style="fill:#ff7f0e;stroke:#fff;stroke-width:.3;stroke-linejoin:miter"/><g id="text_9" style="fill:#262626" transform="matrix(.1728 0 0 -.1728 71.136 171.09)"><use xlink:href="#ArialMT-4f"/><use xlink:href="#ArialMT-62" transform="translate(77.783)"/><use xlink:href="#ArialMT-65" transform="translate(133.398)"/><use xlink:href="#ArialMT-73" transform="translate(189.014)"/><use xlink:href="#ArialMT-69" transform="translate(239.014)"/><use xlink:href="#ArialMT-74" transform="translate(261.23)"/><use xlink:href="#ArialMT-79" transform="translate(289.014)"/><use xlink:href="#ArialMT-5f" transform="translate(339.014)"/><use xlink:href="#ArialMT-54" transform="translate(394.629)"/><use xlink:href="#ArialMT-79" transform="translate(450.213)"/><use xlink:href="#ArialMT-70" transform="translate(500.213)"/><use xlink:href="#ArialMT-65" transform="translate(555.828)"/><use xlink:href="#ArialMT-5f" transform="translate(611.443)"/><use xlink:href="#ArialMT-49" transform="translate(667.059)"/><use xlink:href="#ArialMT-49" transform="translate(694.842)"/><use xlink:href="#ArialMT-49" transform="translate(722.625)"/></g><path id="patch_12" d="M22.752 195.956h34.56V183.86h-34.56z" style="fill:#2ca02c;stroke:#fff;stroke-width:.3;stroke-linejoin:miter"/><g id="text_10" style="fill:#262626" transform="matrix(.1728 0 0 -.1728 71.136 195.956)"><use xlink:href="#ArialMT-4f"/><use xlink:href="#ArialMT-62" transform="translate(77.783)"/><use xlink:href="#ArialMT-65" transform="translate(133.398)"/><use xlink:href="#ArialMT-73" transform="translate(189.014)"/><use xlink:href="#ArialMT-69" transform="translate(239.014)"/><use xlink:href="#ArialMT-74" transform="translate(261.23)"/><use xlink:href="#ArialMT-79" transform="translate(289.014)"/><use xlink:href="#ArialMT-5f" transform="translate(339.014)"/><use xlink:href="#ArialMT-54" transform="translate(394.629)"/><use xlink:href="#ArialMT-79" transform="translate(450.213)"/><use xlink:href="#ArialMT-70" transform="translate(500.213)"/><use xlink:href="#ArialMT-65" transform="translate(555.828)"/><use xlink:href="#ArialMT-5f" transform="translate(611.443)"/><use xlink:href="#ArialMT-49" transform="translate(667.059)"/><use xlink:href="#ArialMT-49" transform="translate(694.842)"/></g><path id="patch_13" d="M22.752 220.823h34.56v-12.096h-34.56z" style="fill:#d62728;stroke:#fff;stroke-width:.3;stroke-linejoin:miter"/><g id="text_11" style="fill:#262626" transform="matrix(.1728 0 0 -.1728 71.136 220.823)"><defs><path id="ArialMT-76" d="M1344 0 81 3319h594l713-1988q115-322 212-668 75 262 209 631l738 2025h578L1869 0h-525z" transform="scale(.01563)"/><path id="ArialMT-72" d="M416 0v3319h506v-503q194 353 358 465 164 113 361 113 284 0 578-181l-194-522q-206 122-412 122-185 0-332-111t-209-308q-94-300-94-656V0H416z" transform="scale(.01563)"/><path id="ArialMT-77" d="M1034 0 19 3319h581l528-1916 197-712q13 53 172 684l528 1944h578l497-1925 166-635 190 641 569 1919h547L3534 0h-584l-528 1988-128 565L1622 0h-588z" transform="scale(.01563)"/><path id="ArialMT-67" d="m319-275 547-81q34-253 190-369 210-156 572-156 391 0 603 156 213 156 288 437 44 172 40 722Q2191 0 1641 0 956 0 581 494T206 1678q0 475 172 876 172 402 498 621 327 219 768 219 587 0 969-475v400h518V450q0-775-158-1098-157-324-500-511-342-188-842-188-593 0-959 267T319-275zm465 1994q0-653 259-953 260-300 651-300 387 0 649 298 263 299 263 936 0 609-270 918-270 310-652 310-375 0-638-305-262-304-262-904z" transform="scale(.01563)"/><path id="ArialMT-68" d="M422 0v4581h562V2938q394 456 994 456 369 0 641-146 272-145 389-401t117-744V0h-562v2103q0 422-183 614t-517 192q-250 0-471-130-220-129-314-351t-94-612V0H422z" transform="scale(.01563)"/><path id="ArialMT-4c" d="M469 0v4581h606V541h2256V0H469z" transform="scale(.01563)"/><path id="ArialMT-6c" d="M409 0v4581h563V0H409z" transform="scale(.01563)"/></defs><use xlink:href="#ArialMT-4f"/><use xlink:href="#ArialMT-76" transform="translate(77.783)"/><use xlink:href="#ArialMT-65" transform="translate(127.783)"/><use xlink:href="#ArialMT-72" transform="translate(183.398)"/><use xlink:href="#ArialMT-77" transform="translate(216.7)"/><use xlink:href="#ArialMT-65" transform="translate(288.916)"/><use xlink:href="#ArialMT-69" transform="translate(344.531)"/><use xlink:href="#ArialMT-67" transform="translate(366.748)"/><use xlink:href="#ArialMT-68" transform="translate(422.363)"/><use xlink:href="#ArialMT-74" transform="translate(477.979)"/><use xlink:href="#ArialMT-5f" transform="translate(505.762)"/><use xlink:href="#ArialMT-4c" transform="translate(561.377)"/><use xlink:href="#ArialMT-65" transform="translate(616.992)"/><use xlink:href="#ArialMT-76" transform="translate(672.607)"/><use xlink:href="#ArialMT-65" transform="translate(722.607)"/><use xlink:href="#ArialMT-6c" transform="translate(778.223)"/><use xlink:href="#ArialMT-5f" transform="translate(800.44)"/><use xlink:href="#ArialMT-49" transform="translate(856.055)"/></g><path id="patch_14" d="M22.752 245.69h34.56v-12.096h-34.56z" style="fill:#9467bd;stroke:#fff;stroke-width:.3;stroke-linejoin:miter"/><g id="text_12" style="fill:#262626" transform="matrix(.1728 0 0 -.1728 71.136 245.69)"><use xlink:href="#ArialMT-4f"/><use xlink:href="#ArialMT-76" transform="translate(77.783)"/><use xlink:href="#ArialMT-65" transform="translate(127.783)"/><use xlink:href="#ArialMT-72" transform="translate(183.398)"/><use xlink:href="#ArialMT-77" transform="translate(216.7)"/><use xlink:href="#ArialMT-65" transform="translate(288.916)"/><use xlink:href="#ArialMT-69" transform="translate(344.531)"/><use xlink:href="#ArialMT-67" transform="translate(366.748)"/><use xlink:href="#ArialMT-68" transform="translate(422.363)"/><use xlink:href="#ArialMT-74" transform="translate(477.979)"/><use xlink:href="#ArialMT-5f" transform="translate(505.762)"/><use xlink:href="#ArialMT-4c" transform="translate(561.377)"/><use xlink:href="#ArialMT-65" transform="translate(616.992)"/><use xlink:href="#ArialMT-76" transform="translate(672.607)"/><use xlink:href="#ArialMT-65" transform="translate(722.607)"/><use xlink:href="#ArialMT-6c" transform="translate(778.223)"/><use xlink:href="#ArialMT-5f" transform="translate(800.44)"/><use xlink:href="#ArialMT-49" transform="translate(856.055)"/><use xlink:href="#ArialMT-49" transform="translate(883.838)"/></g><path id="patch_15" d="M22.752 270.336h34.56V258.24h-34.56z" style="fill:#8c564b;stroke:#fff;stroke-width:.3;stroke-linejoin:miter"/><g id="text_13" style="fill:#262626" transform="matrix(.1728 0 0 -.1728 71.136 270.336)"><defs><path id="ArialMT-4e" d="M488 0v4581h621L3516 984v3597h581V0h-622L1069 3600V0H488z" transform="scale(.01563)"/><path id="ArialMT-6f" d="M213 1659q0 922 512 1366 428 369 1044 369 684 0 1118-449 435-448 435-1239 0-640-192-1008-192-367-560-570-367-203-801-203-697 0-1127 447-429 447-429 1287zm578 0q0-637 278-954t700-317q419 0 697 318 278 319 278 972 0 616-280 933t-695 317q-422 0-700-316-278-315-278-953z" transform="scale(.01563)"/><path id="ArialMT-6d" d="M422 0v3319h503v-466q156 244 415 392 260 149 591 149 369 0 605-153t333-428q394 581 1025 581 494 0 759-274 266-273 266-842V0h-560v2091q0 337-55 485-54 149-198 239-143 91-337 91-350 0-582-233-231-232-231-745V0h-562v2156q0 375-138 562-137 188-450 188-237 0-439-125-201-125-292-366-91-240-91-693V0H422z" transform="scale(.01563)"/><path id="ArialMT-61" d="M2588 409q-313-265-602-375-289-109-620-109-547 0-841 267T231 875q0 244 111 445 111 202 291 324t405 184q165 44 500 85 681 81 1003 193 3 116 3 147 0 344-160 485-215 190-640 190-397 0-586-139t-280-492l-550 75q75 353 247 570t497 334q325 118 753 118 425 0 690-100 266-100 391-252 125-151 175-383 28-143 28-518v-750q0-785 36-993 36-207 143-398h-588q-87 175-112 409zm-47 1257q-307-125-919-213-347-50-491-113-143-62-222-182-78-120-78-267 0-225 170-375 171-150 499-150 325 0 578 142t372 389q91 191 91 562v207z" transform="scale(.01563)"/><path id="ArialMT-57" d="M1294 0 78 4581h622l697-3003q112-472 194-937 175 734 206 847l872 3093h731l656-2318q247-863 357-1622 87 434 228 997l718 2943h610L4713 0h-585l-965 3491q-122 437-144 537-72-315-135-537L1913 0h-619z" transform="scale(.01563)"/></defs><use xlink:href="#ArialMT-4e"/><use xlink:href="#ArialMT-6f" transform="translate(72.217)"/><use xlink:href="#ArialMT-72" transform="translate(127.832)"/><use xlink:href="#ArialMT-6d" transform="translate(161.133)"/><use xlink:href="#ArialMT-61" transform="translate(244.434)"/><use xlink:href="#ArialMT-6c" transform="translate(300.049)"/><use xlink:href="#ArialMT-5f" transform="translate(322.266)"/><use xlink:href="#ArialMT-57" transform="translate(377.88)"/><use xlink:href="#ArialMT-65" transform="translate(470.516)"/><use xlink:href="#ArialMT-69" transform="translate(526.13)"/><use xlink:href="#ArialMT-67" transform="translate(548.348)"/><use xlink:href="#ArialMT-68" transform="translate(603.963)"/><use xlink:href="#ArialMT-74" transform="translate(659.578)"/></g><path id="patch_16" d="M22.752 295.192h34.56v-12.096h-34.56z" style="fill:#e377c2;stroke:#fff;stroke-width:.3;stroke-linejoin:miter"/><g id="text_14" style="fill:#262626" transform="matrix(.1728 0 0 -.1728 71.136 295.192)"><defs><path id="ArialMT-6e" d="M422 0v3319h506v-472q366 547 1056 547 300 0 552-108t377-283q125-175 175-415 31-157 31-547V0h-563v2019q0 344-66 514-65 170-232 271-167 102-392 102-360 0-621-228t-261-865V0H422z" transform="scale(.01563)"/><path id="ArialMT-75" d="M2597 0v488Q2209-75 1544-75q-294 0-549 112-254 113-378 283-123 171-173 418-35 165-35 525v2056h563V1478q0-440 34-594 53-221 225-348t425-127q253 0 475 130t314 353q93 224 93 649v1778h562V0h-503z" transform="scale(.01563)"/><path id="ArialMT-66" d="M556 0v2881H59v438h497v353q0 334 60 497 81 219 285 354 205 136 574 136 238 0 525-56l-84-490q-175 31-332 31-256 0-362-110-106-109-106-409v-306h647v-438h-647V0H556z" transform="scale(.01563)"/><path id="ArialMT-63" d="m2588 1216 553-72q-91-572-465-896-373-323-917-323-681 0-1095 445-414 446-414 1277 0 537 178 940 178 404 542 605 364 202 793 202 540 0 884-274 344-273 441-776l-547-85q-78 335-277 503-198 169-480 169-425 0-691-305-265-304-265-963 0-669 256-972 257-303 669-303 331 0 553 203t282 625z" transform="scale(.01563)"/></defs><use xlink:href="#ArialMT-49"/><use xlink:href="#ArialMT-6e" transform="translate(27.783)"/><use xlink:href="#ArialMT-73" transform="translate(83.398)"/><use xlink:href="#ArialMT-75" transform="translate(133.398)"/><use xlink:href="#ArialMT-66" transform="translate(189.014)"/><use xlink:href="#ArialMT-66" transform="translate(215.047)"/><use xlink:href="#ArialMT-69" transform="translate(242.83)"/><use xlink:href="#ArialMT-63" transform="translate(265.047)"/><use xlink:href="#ArialMT-69" transform="translate(315.047)"/><use xlink:href="#ArialMT-65" transform="translate(337.264)"/><use xlink:href="#ArialMT-6e" transform="translate(392.879)"/><use xlink:href="#ArialMT-74" transform="translate(448.494)"/><use xlink:href="#ArialMT-5f" transform="translate(476.277)"/><use xlink:href="#ArialMT-57" transform="translate(531.893)"/><use xlink:href="#ArialMT-65" transform="translate(624.527)"/><use xlink:href="#ArialMT-69" transform="translate(680.143)"/><use xlink:href="#ArialMT-67" transform="translate(702.36)"/><use xlink:href="#ArialMT-68" transform="translate(757.975)"/><use xlink:href="#ArialMT-74" transform="translate(813.59)"/></g></g></g></g><defs><clipPath id="padbcd637b0"><path d="M7.2 7.2h390.6v110.88H7.2z"/></clipPath></defs></svg>